<svg xmlns="http://www.w3.org/2000/svg" width="24" height="24" viewBox="0 0 24 24"><path fill="#287EAB" d="M23.6 11.8c0 6.5-9.6 11.8-11.8 11.8C10.2 23.6 0 18.3 0 11.8 0 5.3 5.3 0 11.8 0c6.5 0 11.8 5.3 11.8 11.8z"/><path fill="#03446D" d="M11.8 1c2.9 0 5.6 1.1 7.6 3.2 2 2 3.2 4.7 3.2 7.6 0 3.3-2.9 6.1-4.7 7.5-1.2.9-2.5 1.8-3.8 2.4-1.3.6-2.1.8-2.3.8-.5 0-3.1-1.1-6-3.3-1.4-1.1-2.6-2.3-3.4-3.5-.9-1.4-1.4-2.7-1.4-4 0-2.9 1.1-5.6 3.2-7.6S8.9 1 11.8 1m0-1C5.3 0 0 5.3 0 11.8c0 6.5 10.2 11.8 11.8 11.8 2.1 0 11.8-5.3 11.8-11.8C23.6 5.3 18.3 0 11.8 0z"/><ellipse transform="rotate(-26.143 6.5 11.727)" fill="#08446E" cx="6.5" cy="11.7" rx="4" ry="4.8"/><path fill="#0C446E" d="M14.5 19.3l-.5-.5c-1.4 1.4-3 1.4-4.3 0l-.5.5c1.3 2.1 3.9 2.1 5.3 0z"/><ellipse transform="rotate(-153.857 17.187 11.726)" fill="#08446E" cx="17.2" cy="11.7" rx="4" ry="4.8"/></svg>
