<svg xmlns="http://www.w3.org/2000/svg" width="64" height="64" viewBox="0 0 64 64"><path fill="#C7E755" d="M59.5 30.607C59.5 54.065 32 62 32 62S4.5 54.065 4.5 30.607C4.5 13.124 15.49 2 32 2c16.51 0 27.5 11.124 27.5 28.607z"/><path fill="#454749" d="M23.378 26.36c3.96 3.827 5.124 8.91 2.597 11.35-2.525 2.44-7.785 1.316-11.75-2.51-3.962-3.83-5.127-8.91-2.598-11.354 2.525-2.442 7.788-1.316 11.75 2.513z"/><path fill="#454749" d="M26.43 30.578c-2.585-2.256-5.192-4.15-8.03-5.71a43.307 43.307 0 0 0-4.382-2.106c-1.515-.625-3.08-1.165-4.705-1.76 1.72-.232 3.47-.106 5.168.27a18.087 18.087 0 0 1 9.05 5.014c1.21 1.244 2.278 2.663 2.9 4.292z"/><path fill="#FFF" d="M20.378 25.048c2.032 1.247 3.134 3.086 2.463 4.106-.664 1.022-2.86.838-4.89-.41-2.03-1.246-3.133-3.085-2.463-4.105.673-1.027 2.864-.84 4.895.404z"/><path fill="#454749" d="M40.622 26.358c-3.962 3.828-5.126 8.912-2.6 11.352 2.527 2.442 7.788 1.317 11.75-2.512 3.963-3.828 5.127-8.91 2.6-11.353-2.526-2.44-7.787-1.315-11.75 2.513z"/><path fill="#454749" d="M37.57 30.577c.625-1.628 1.692-3.047 2.902-4.293a18.056 18.056 0 0 1 4.158-3.166 18.06 18.06 0 0 1 4.888-1.847c1.7-.37 3.45-.5 5.168-.27-1.627.6-3.19 1.14-4.705 1.76a43.41 43.41 0 0 0-4.38 2.11c-2.833 1.56-5.44 3.455-8.025 5.71z"/><path fill="#FFF" d="M43.62 25.05c-2.032 1.244-3.135 3.083-2.465 4.103.67 1.022 2.863.838 4.895-.408 2.03-1.248 3.134-3.085 2.465-4.105-.673-1.022-2.864-.838-4.896.41z"/><path fill="#454749" stroke="#454749" stroke-miterlimit="10" d="M32 48.617c-7.622 0-10.693-3.673-10.693-2.422 0 1.94 4.78 4.43 10.692 4.43s10.69-2.488 10.69-4.43c0-1.25-3.074 2.422-10.695 2.422z"/></svg>