<svg xmlns="http://www.w3.org/2000/svg" width="24" height="24" viewBox="0 0 24 24"><path fill="#894B39" d="M21.1 18.8c0 2.5-4.1 4.6-9.1 4.6s-9.1-2.1-9.1-4.6S7 14.2 12 14.2s9.1 2 9.1 4.6"/><path fill="#08446E" d="M22.7 17.9c0 7.4-21.5 7.4-21.5 0v-6.6h21.5v6.6z"/><path fill="#287EAB" d="M23.103 10.556c0 3.2-5 5.8-11.1 5.8s-11.1-2.6-11.1-5.8 5-5.8 11.1-5.8 11.1 2.6 11.1 5.8"/><path fill="#04446E" d="M12.003 16.756c-3 0-5.9-.6-8-1.8-2.2-1.2-3.5-2.8-3.5-4.5s1.2-3.3 3.5-4.5c2.2-1.1 5-1.8 8-1.8s5.9.6 8 1.8c2.2 1.2 3.5 2.8 3.5 4.5s-1.2 3.3-3.5 4.5c-2.1 1.2-5 1.8-8 1.8zm0-11.6c-2.9 0-5.6.6-7.6 1.7-1.9 1-3 2.3-3 3.7s1.1 2.7 3 3.7c2 1.1 4.7 1.7 7.6 1.7 2.9 0 5.6-.6 7.6-1.7 1.9-1 3-2.3 3-3.7s-1.1-2.7-3-3.7c-2-1.1-4.7-1.7-7.6-1.7z"/><path fill="#08446E" d="M6.2 13.5c-.5 0-.8-.4-.8-.8V6.9c0-.5.4-.8.8-.8.5 0 .8.4.8.8v5.8c0 .4-.3.8-.8.8M12 11c-.5 0-.8-.4-.8-.8V4.4c0-.5.4-.8.8-.8s.8.4.8.8v5.8c0 .4-.3.8-.8.8M17.8 13.5c-.5 0-.8-.4-.8-.8V6.9c0-.5.4-.8.8-.8.5 0 .8.4.8.8v5.8c0 .4-.4.8-.8.8"/><path fill="#287EAB" d="M17.8 8.1c-.9 0-1.6-.4-1.8-1.1-.2-.6-.4-1.8 1.6-3.8.2-.2.4-.2.6 0C20.1 5.1 20 6.4 19.8 7c-.5.7-1.1 1.1-2 1.1"/><path fill="#04446E" d="M17.8 8.5c-1.1 0-1.9-.5-2.2-1.3-.7-1.6.7-3.3 1.6-4.2.2-.2.4-.2.6-.2.2 0 .4.1.6.2.9.9 2.3 2.6 1.6 4.2-.3.8-1.2 1.3-2.2 1.3zm0-4.9c-.6.6-1.9 2.1-1.5 3.3.2.5.8.8 1.5.8s1.2-.3 1.5-.8c.4-1.2-.9-2.7-1.5-3.3z"/><g><path fill="#287EAB" d="M12 5.6c-.9 0-1.6-.4-1.8-1.1-.2-.6-.4-1.8 1.6-3.8.2-.2.4-.2.6 0 1.9 1.9 1.8 3.2 1.6 3.8-.4.7-1.1 1.1-2 1.1"/><path fill="#04446E" d="M12 6c-1.1 0-1.9-.5-2.2-1.3-.7-1.6.7-3.3 1.6-4.2.2-.2.4-.2.6-.2s.4.1.6.2c.9.9 2.3 2.6 1.6 4.2-.3.8-1.1 1.3-2.2 1.3zm0-4.9c-.6.6-1.9 2.1-1.5 3.3.2.5.8.8 1.5.8s1.2-.3 1.5-.8c.4-1.2-.9-2.7-1.5-3.3z"/></g><g><path fill="#287EAB" d="M6.2 8.1c-.9 0-1.6-.4-1.8-1.1C4.2 6.4 4 5.2 6 3.2c.2-.2.4-.2.6 0C8.5 5.1 8.4 6.4 8.2 7c-.4.7-1.1 1.1-2 1.1"/><path fill="#04446E" d="M6.2 8.5C5.1 8.5 4.3 8 4 7.2c-.7-1.6.7-3.3 1.6-4.2.2-.2.4-.2.6-.2.2 0 .4.1.6.2.9.9 2.3 2.6 1.6 4.2-.3.8-1.1 1.3-2.2 1.3zm0-4.9c-.6.6-1.9 2.1-1.5 3.3.2.5.8.8 1.5.8s1.2-.3 1.5-.8c.5-1.2-.9-2.7-1.5-3.3z"/></g></svg>
