<svg xmlns="http://www.w3.org/2000/svg" width="24" height="24" viewBox="0 0 64 64"><path fill="#FFDD67" d="M62 32c0 16.57-13.43 30-30 30S2 48.57 2 32 15.43 2 32 2s30 13.43 30 30z"/><path fill="#664E27" d="M49 38.05c0-.804-.474-1.808-1.82-2.067-3.465-.663-8.584-1.342-15.18-1.342s-11.715.68-15.178 1.344c-1.35.26-1.822 1.263-1.822 2.066 0 7.27 5.61 14.59 17 14.59s17-7.32 17-14.59zM28.526 26.854c-1.86-5.11-4.66-7.668-7.46-7.668s-5.603 2.558-7.46 7.668c-.185.516.773 1.443 1.253.94 1.8-1.903 3.955-2.66 6.204-2.66 2.25 0 4.405.757 6.207 2.66.48.503 1.438-.425 1.255-.94zm21.87 0c-1.86-5.11-4.66-7.668-7.462-7.668-2.8 0-5.602 2.558-7.46 7.668-.185.516.774 1.443 1.253.94 1.803-1.903 3.957-2.66 6.207-2.66s4.405.757 6.208 2.66c.478.503 1.437-.425 1.254-.94z"/><path fill="#FFF" d="M44.69 38.283c-2.194-.37-6.836-1.013-12.69-1.013-5.853 0-10.496.645-12.69 1.014-1.295.217-1.374.742-1.284 1.486.054.44.137.975.265 1.552.144.64.264.936 1.268.816 1.92-.23 22.967-.23 24.887 0 1.005.12 1.124-.177 1.267-.816.128-.577.212-1.11.265-1.552.088-.745.01-1.27-1.284-1.487z"/><path fill="#FFDD67" d="M62 32c0 16.57-13.43 30-30 30S2 48.57 2 32 15.43 2 32 2s30 13.43 30 30z"/><path fill="#664E27" d="M49 38.05c0-.804-.474-1.808-1.82-2.067-3.465-.663-8.584-1.342-15.18-1.342s-11.715.68-15.178 1.344c-1.35.26-1.822 1.263-1.822 2.066 0 7.27 5.61 14.59 17 14.59s17-7.32 17-14.59zM28.526 26.854c-1.86-5.11-4.66-7.668-7.46-7.668s-5.603 2.558-7.46 7.668c-.185.516.773 1.443 1.253.94 1.8-1.903 3.955-2.66 6.204-2.66 2.25 0 4.405.757 6.207 2.66.48.503 1.438-.425 1.255-.94zm21.87 0c-1.86-5.11-4.66-7.668-7.462-7.668-2.8 0-5.602 2.558-7.46 7.668-.185.516.774 1.443 1.253.94 1.803-1.903 3.957-2.66 6.207-2.66s4.405.757 6.208 2.66c.478.503 1.437-.425 1.254-.94z"/><path fill="#FFF" d="M44.69 38.283c-2.194-.37-6.836-1.013-12.69-1.013-5.853 0-10.496.645-12.69 1.014-1.295.217-1.374.742-1.284 1.486.054.44.137.975.265 1.552.144.64.257.816 1.268.816h24.887c1.01 0 1.124-.177 1.267-.816.128-.577.212-1.11.265-1.552.088-.745.01-1.27-1.284-1.487z"/></svg>