<svg xmlns="http://www.w3.org/2000/svg" width="64" height="64" viewBox="0 0 64 64"><path fill="#FFDD67" d="M4 30c0 15.467 12.53 28 28 28s28-12.533 28-28S47.47 2 32 2 4 14.533 4 30z"/><path d="M14.186 11.968a13.284 13.284 0 0 1 11.256-.983c.512.198 1.328-1.683.703-1.92A15.315 15.315 0 0 0 13.158 10.2c-.574.344.56 2.052 1.028 1.768zm24.002 3a13.284 13.284 0 0 1 11.256-.985c.512.2 1.328-1.68.703-1.92A15.33 15.33 0 0 0 37.16 13.2c-.574.342.555 2.05 1.028 1.768z" fill="#917524"/><path fill="#664E27" d="M24.146 34.727c5.125-1.326 10.71-.365 15.05 2.584 1.07.75-.94 3.456-2.003 2.706-2.865-1.943-7.424-3.285-12.143-2.084-1.263.32-2.253-2.836-.904-3.2z"/><path fill="#FFF" d="M42.807 29.146a7.52 7.52 0 0 1-7.518-7.518c0-1.7.57-3.262 1.52-4.52a20.697 20.697 0 0 1 5.57-.748c2.447 0 4.727.404 6.676 1.093a7.52 7.52 0 0 1-6.254 11.693z"/><path fill="#664E27" d="M43.842 16.413c.424.608.676 1.344.676 2.14a3.76 3.76 0 0 1-7.52 0c0-.575.14-1.113.37-1.6 1.542-.38 3.237-.59 5.017-.59.494-.002.978.018 1.457.05z"/><path fill="#FFF" d="M21.19 29.146a7.52 7.52 0 0 1-7.517-7.518c0-1.7.572-3.262 1.523-4.52a20.697 20.697 0 0 1 5.572-.748c2.447 0 4.727.404 6.676 1.093a7.518 7.518 0 0 1-6.253 11.693z"/><path fill="#664E27" d="M22.227 16.413c.424.608.676 1.344.676 2.14a3.76 3.76 0 0 1-7.52 0c0-.575.14-1.113.37-1.6 1.542-.38 3.237-.59 5.017-.59.494-.002.978.018 1.457.05z"/><path fill="#FFF" d="M32.635 44.035c-4.213 1.02-14.854 2.285-16.822.314-.88-.89-.713-2.228-.428-4.51.277-2.26-1.91-4.735-3.52-4.937-1.927-.244-3.032 1.164-2.35 3.197 1.497 4.458-1.35 5.894-1.48 9.208-.076 1.92-.668 5.096 2.22 9.184 3.263 4.623 8.987 4.68 10.958 4.61 2.326-.08 3.3-.167 3.846-1.224.6-1.166.32-1.453.57-1.877.546-.922.82-.81 1.07-1.852.27-1.14-.534-1.777-.337-2.33.404-1.15 1.412-.988.4-3.75 3.406-.518 5.635-1.047 7.645-2.19 3.64-2.066.46-4.388-1.777-3.845z"/><path fill="#CCCFD4" d="M17.45 61.738c-3.437-.604-6.192-2.254-7.968-4.766-2.75-3.896-2.55-7.006-2.416-9.063.014-.237.027-.456.037-.66.057-1.437.55-2.522 1.025-3.577.705-1.555 1.313-2.896.496-5.328-.443-1.323-.28-2.558.453-3.384.654-.74 1.705-1.08 2.883-.933l.137.022c2.135.374 4.543 3.23 4.213 5.91-.27 2.18-.373 3.235.176 3.786.098.1.445.353 1.508.54 3.783.664 11.262-.357 14.387-1.115a4.16 4.16 0 0 1 1.69-.036c1.48.26 2.64 1.186 2.888 2.31.145.673.074 1.983-2.043 3.187-1.968 1.12-4.093 1.67-6.95 2.14.762 1.98-1.113 2.744-.736 3.48.55 1.08.392 2.018-.733 3.063-.807.747.166 1.59-.592 2.964-.852 1.548-2.408 1.628-4.625 1.704a18.41 18.41 0 0 1-3.825-.25zM9.86 37.164c.737 3.338.93 4.48-.343 7.17-1.735 3.662-2.464 13.824 8.277 15.762 6.527 1.178 7.494-.428 7.216-2.127-.18-1.1.746-1.527.953-1.9.697-1.25-.328-1.77-.347-2.27-.036-.935.904-.9 1.052-1.8.27-1.64-1.674-2.19.05-2.318 3.3-.242 5.53-.783 7.438-2.116 1.785-1.245.547-3.687-1.86-3.176-5.63 1.195-13.957 2.647-16.843-.003-1.29-1.184-.254-2.558-.375-5.252-.164-3.632-5.886-5.003-5.217-1.974z"/></svg>