<svg xmlns="http://www.w3.org/2000/svg" width="64" height="64" viewBox="0 0 64 64"><path fill="#F2B200" d="M12.687 31.713c-.54 0-1.062-.12-1.548-.365-1.31-.66-2.87-2.458-2.87-7.284 0-10.092-5.327-15.85-5.38-15.906L2 7.213 6.736 2l.81 1.222c.102.148 2.578 3.738 6.533 2.683l.544 2.58c-3.896 1.04-6.71-1.14-8.07-2.57L5.35 7.242c1.68 2.223 5.287 8.023 5.287 16.82 0 2.62.537 4.395 1.473 4.867.71.353 1.765-.03 2.754-1.017 2.59-2.573 4.493-8.986 4.512-9.05l2.248.827c-.084.29-2.12 7.16-5.19 10.208-1.197 1.19-2.518 1.812-3.747 1.812zm38.626 0a3.41 3.41 0 0 0 1.55-.366c1.308-.66 2.866-2.458 2.866-7.284 0-10.09 5.32-15.85 5.374-15.905L62 7.21 57.264 2l-.81 1.22c-.103.15-2.58 3.74-6.534 2.683l-.55 2.58c3.897 1.04 6.712-1.14 8.07-2.57l1.21 1.327c-1.678 2.223-5.285 8.024-5.285 16.82 0 2.622-.537 4.396-1.473 4.867-.71.36-1.766-.03-2.754-1.012-2.59-2.572-4.494-8.985-4.514-9.05l-2.248.827c.086.29 2.12 7.158 5.19 10.207 1.198 1.184 2.52 1.81 3.75 1.81zM28.95 24.93h6.1v24.48h-6.1z"/><path fill="#FFCE31" d="M30.2 24.93h3.6v24.48h-3.6z"/><path fill="#F2B200" d="M11.825 2c1.72 15.382 10.1 27.718 20.175 27.718S50.455 17.382 52.175 2h-40.35z"/><path fill="#FFCE31" d="M15.716 2C17.106 17.56 23.868 30.042 32 30.042S46.894 17.562 48.283 2H15.716z"/><path fill="#F2B200" d="M47.648 54H16.35s7.007-9.033 15.65-9.033S47.65 54 47.65 54z"/><path fill="#FFCE31" d="M43.873 54H20.125S25.44 44.817 32 44.817 43.873 54 43.873 54z"/><path fill="#BC845E" d="M11.816 56h40.368v6H11.816z"/><path fill="#916140" d="M16.35 54h31.3v2h-31.3z"/><path fill="#F2B200" d="M22 57.5h20v3H22z"/><path fill="#CE9C7A" d="M11.816 56h2v6h-2z"/><path fill="#916140" d="M50.184 56h2v6h-2z"/><path fill="#FFCE31" d="M23 57.5h18v3H23z"/></svg>