<svg xmlns="http://www.w3.org/2000/svg" viewBox="0 0 24 24"><circle fill="#287EAB" cx="12" cy="12" r="12"/><path fill="#03446D" d="M12 1c2.9 0 5.7 1.1 7.7 3.2C21.8 6.3 23 9.1 23 12c0 2.9-1.1 5.7-3.2 7.7-2.1 2.1-4.9 3.3-7.8 3.3-2.9 0-5.7-1.1-7.7-3.2C2.2 17.7 1 14.9 1 12c0-2.9 1.1-5.7 3.2-7.7S9.1 1 12 1m0-1C5.4 0 0 5.4 0 12s5.4 12 12 12 12-5.4 12-12S18.6 0 12 0z"/><path fill="#0C446E" d="M4.9 8.7l.5.5c1.4-1.5 3.1-1.5 4.4 0l.6-.6c-1.5-2.1-4.1-2.1-5.5.1zM13.1 8.7l.5.5c1.4-1.5 3.1-1.5 4.4 0l.6-.6c-1.5-2.1-4.1-2.1-5.5.1zM20.4 12.2c-1.5.3-4.6.9-8.4.9-3.9 0-7.1-.6-8.5-.9l-.6.6c.6 2.1 2.8 8 9.1 8 6.1 0 8.4-5.6 9-7.9l-.6-.7z"/></svg>