<svg xmlns="http://www.w3.org/2000/svg" width="24" height="24" viewBox="0 0 64 64"><path fill="#FFDD67" d="M35.304 12.646c-.418 4.445-3.977 5.928-5.736 6.447l-.832.24s-.572.498-1.473 1.13c-.014.075-.033.15-.05.224 0 0 7.753.465 10.306.113 2.82-.39 15.24-.387 18.285-.55 3.583-.188 6.194.46 6.194 4.505 0 4.092-3.173 5.342-6.195 5.092-4.166-.344-18.258-.563-18.258-.563 1.818.436 3.486 1.223 3.176 4.217-.355 3.43-1.684 4.078-3.814 4.234 2.882 1.682 2.667 3.96 2.31 5.377-.604 2.394-4.914 3.06-4.914 3.083 3.2.94 2.645 2.422 2.336 4.498-.19 1.27-1.484 2.75-3.688 3.28-2.207.533-3.836 2.174-21.05-.287-4.52-.646-6.745-4.592-7.774-10.547-.692-4.023-1.796-9.512-2.106-13.604a8.666 8.666 0 0 1-.01-1.09c-.12-2.27.848-4.55 2.766-5.96l12.19-8.95c.017-.01.032-.017.046-.028.584-.64 1.406-1.045 2.43-1.152a35.39 35.39 0 0 0 11.37-3.117c1.658-.765 4.78.334 4.488 3.413z"/><path fill="#EBA352" d="M36.85 49.308c.57-3.816-5.294-3.523-2.827-2.736 2.585.825 2.828 2.736 2.828 2.736zm2.56-7.32c.534-5.21-5.272-4.67-2.886-3.67 2.422 1.013 2.885 3.67 2.885 3.67zm1.325-8.594c.533-5.21-5.654-4.672-3.268-3.672 2.423 1.015 3.268 3.672 3.268 3.672z"/><g fill="#EBA352"><path d="M27.214 20.687s12.596-1.457 28.64-.748c2.334.102 5.937.11 6.13 4.264-1.474-4.663-17.387-2.497-34.77-3.518z"/><path d="M34.43 9.993c-.722-.186-1.47-.148-2.042.115a35.39 35.39 0 0 1-11.37 3.117c-1.022.107-1.845.514-2.43 1.152-.013.012-.028.02-.044.03l-12.19 8.95c-1.92 1.41-2.886 3.69-2.767 5.958-.018.36-.02.723.01 1.092.31 4.092 1.414 9.58 2.107 13.604.736 4.25 2.086 7.47 4.438 9.203-3.352-1.328-5.125-4.957-6.012-10.076-.693-4.023-1.797-9.512-2.107-13.604a8.666 8.666 0 0 1-.01-1.092c-.12-2.267.848-4.55 2.766-5.96l12.19-8.947c.015-.01.03-.018.044-.03.584-.638 1.406-1.044 2.43-1.15a35.39 35.39 0 0 0 11.37-3.118c1.03-.475 2.622-.23 3.614.76z"/></g><path fill="#EBA352" d="M22.972 19.458s4.31-1.313 6.338-1.84c1.69-.438 4.76-2.014 5.955-4.633-.563 4.182-3.984 5.602-5.697 6.107l-.832.24s-.48.7-1.52 1.354c-.002 0-1.96-1.382-4.244-1.228zm13.443 10.344c-.578.21-1.026.487-1.487.794-.454.313-.927.64-1.466.927-.542.27-1.165.488-1.81.492a2.942 2.942 0 0 1-1.77-.523c.614-.05 1.16-.104 1.665-.25a7.652 7.652 0 0 0 1.46-.608c.49-.238.993-.535 1.576-.734.57-.208 1.248-.312 1.832-.098zm-1.64 7.86c-.577.21-1.025.487-1.486.794-.456.313-.93.64-1.468.928-.542.27-1.165.487-1.81.49a2.948 2.948 0 0 1-1.77-.523c.614-.05 1.16-.102 1.665-.25.504-.144.977-.35 1.46-.605.49-.238.993-.535 1.576-.734.572-.205 1.248-.31 1.832-.096zm-2.393 8.58c-.578.21-1.026.487-1.487.794-.454.313-.926.64-1.465.927-.542.27-1.165.488-1.81.49a2.948 2.948 0 0 1-1.768-.522c.613-.05 1.158-.102 1.664-.25a7.64 7.64 0 0 0 1.46-.605c.49-.238.992-.535 1.575-.734.57-.205 1.25-.31 1.833-.096z"/></svg>