<svg xmlns="http://www.w3.org/2000/svg" viewBox="0 0 24 24"><path fill="#1380BA" d="M7.4 18.9v3.7h11.2V18s4-1.8 2.8-9.2c0-.9-14.1-3.2-14.1-3.2l.1 13.3z"/><path fill="#04446E" d="M18.9 22.9H7v-4L6.9 5.1l.4.1s3.6.6 7 1.3c2 .4 3.7.8 4.9 1.1.7.2 1.3.3 1.6.5.5.2.8.4.8.7.3 2.2.4 5.3-1 7.6-.7 1.1-1.4 1.6-1.8 1.8v4.7zm-11.2-.7h10.4v-4.5l.2-.1s.9-.4 1.7-1.7c.7-1.2 1.5-3.4.9-7-.2-.2-1.4-.7-7.1-1.8-2.6-.5-5.2-1-6.2-1.1l.1 12.9v3.3z"/><path fill="#1380BA" d="M7.8 9.4c-1.1 0-1.9-.9-1.9-1.9V3.6c0-1.1.9-1.9 1.9-1.9 1.1 0 1.9.9 1.9 1.9v3.9c0 1.1-.9 1.9-1.9 1.9z"/><path fill="#04446E" d="M7.8 9.8c-1.3 0-2.3-1-2.3-2.3V3.6c0-1.3 1-2.3 2.3-2.3s2.3 1 2.3 2.3v3.9c0 1.3-1.1 2.3-2.3 2.3zm0-7.8c-.9 0-1.6.7-1.6 1.6v3.9c0 .9.7 1.6 1.6 1.6s1.6-.7 1.6-1.6V3.6C9.3 2.7 8.6 2 7.8 2z"/><path fill="#1380BA" d="M11.6 8.8c-1.1 0-1.9-.9-1.9-1.9V3c0-1.1.9-1.9 1.9-1.9 1.1 0 1.9.9 1.9 1.9v3.9c.1 1-.8 1.9-1.9 1.9z"/><path fill="#04446E" d="M11.6 9.1c-1.3 0-2.3-1-2.3-2.3V3c0-1.3 1-2.3 2.3-2.3 1.3 0 2.3 1 2.3 2.3v3.9c0 1.2-1 2.2-2.3 2.2zm0-7.7c-.9 0-1.6.7-1.6 1.6v3.9c0 .9.7 1.6 1.6 1.6.9 0 1.6-.7 1.6-1.6V3c0-.9-.7-1.6-1.6-1.6z"/><g><path fill="#1380BA" d="M15.5 11.1c-1.1 0-1.9-.9-1.9-1.9V4.3c0-1.1.9-1.9 1.9-1.9 1.1 0 1.9.9 1.9 1.9v4.9c.1 1-.8 1.9-1.9 1.9z"/><path fill="#04446E" d="M15.5 11.4c-1.3 0-2.3-1-2.3-2.3V4.3c0-1.3 1-2.3 2.3-2.3s2.3 1 2.3 2.3v4.9c0 1.2-1 2.2-2.3 2.2zm0-8.7c-.9 0-1.6.7-1.6 1.6v4.9c0 .9.7 1.6 1.6 1.6.9 0 1.6-.7 1.6-1.6V4.3c0-.9-.7-1.6-1.6-1.6z"/></g><g><path fill="#1380BA" d="M19.4 11.6c-1.1 0-1.9-.9-1.9-1.9V6.1c0-1.1.9-1.9 1.9-1.9 1.1 0 1.9.9 1.9 1.9v3.6c.1 1-.8 1.9-1.9 1.9z"/><path fill="#04446E" d="M19.4 12c-1.3 0-2.3-1-2.3-2.3V6.1c0-1.3 1-2.3 2.3-2.3 1.3 0 2.3 1 2.3 2.3v3.6c0 1.2-1 2.3-2.3 2.3zm0-7.5c-.9 0-1.6.7-1.6 1.6v3.6c0 .9.7 1.6 1.6 1.6.9 0 1.6-.7 1.6-1.6V6.1c0-.9-.7-1.6-1.6-1.6z"/></g><g><path fill="#1380BA" d="M7.4 19.1s-2.9-1.8-3.8-3.3S2 12.3 2.7 10s.9-3.9 3-3.9h5.4S13 5.9 13 7.9s-1.7 1.7-1.7 1.7H5.6s5.8-.4 5.8 4.6"/><path fill="#04446E" d="M7.4 19.5c-.1 0-.1 0-.2-.1s-3-1.9-3.9-3.5c-1.3-2-1.6-4-.9-6 .1-.3.2-.5.2-.8.6-1.9 1-3.4 3.2-3.4h5.4c.2 0 .9 0 1.5.5.4.4.6 1 .6 1.7 0 .8-.2 1.3-.7 1.7-.6.5-1.3.4-1.5.4H9.3c.4.2.7.4 1.1.7.9.8 1.4 2 1.4 3.5 0 .2-.2.4-.4.4s-.4-.2-.4-.4c0-1.3-.4-2.2-1.2-3-1.1-1-2.7-1.2-3.6-1.3h-.6c-.2 0-.4-.2-.4-.3 0-.2.1-.4.3-.4h5.8s.6.1.9-.2c.3-.2.4-.6.4-1.1 0-.5-.1-.9-.4-1.1-.4-.4-1-.3-1-.3H5.7c-1.6 0-1.9.9-2.5 2.8 0 .3-.1.6-.2.9-.6 1.8-.3 3.6.9 5.4.9 1.4 3.7 3.2 3.7 3.2.2.1.2.3.1.5-.1.1-.2.2-.3.2z"/></g></svg>