<svg xmlns="http://www.w3.org/2000/svg" width="24" height="24" viewBox="0 0 24 24"><path fill="#287EAB" d="M8.4 3.5c2.8-.3 5.6-.2 8.5-.1.4 0 .7-.1 1.1 0 .3 0 .6.2.9.4.5.4.9.9 1.3 1.4.4.6.5 1.4 1 2 .6.8 1.5 1.3 2 2.1.4.5.4 1.2.4 1.9-.1.6-.4 1.1-.7 1.5-.5.5-1.1 1-1.5 1.7-.3.4-.3.9-.6 1.4-.6.9-1.4 1.5-2.3 2.1-1.3.8-2.7 1.3-4.1 2-.6.3-1.2.7-1.9.9-.6.3-1.3.3-1.9.4-.6.1-1.1.2-1.7.4-1.3.3-2.7.5-4.1.4-.9-.1-1.9-.4-2.6-1.1-.3-.3-.5-.6-.6-1-.1-1.1.1-2.2.2-3.3.1-1.1.2-2.1 0-3.2-.2-.8-.7-1.5-1-2.4-.2-.6-.3-1.3 0-1.9C1.2 8.4 2 8 2.3 7.2c.2-.4.2-.9.2-1.3.6-.6 1.5-1.1 2.3-1.4 1.1-.6 2.4-.8 3.6-1z"/><path fill="#03446D" d="M5.6 22.4h-.9c-.8-.1-2-.4-2.8-1.3-.2-.3-.5-.6-.7-1.1v-.2c-.1-1.1.1-2.3.2-3.3v-.1c.1-1 .2-2 0-3l-.6-1.2c-.2-.4-.4-.7-.5-1.1-.3-.8-.3-1.6 0-2.2.2-.4.5-.7.8-1 .3-.3.6-.6.7-.9.2-.4.3-.7.3-1.2v-.2l.1-.1c.6-.6 1.4-1.1 2.4-1.5 1.1-.4 2.2-.7 3.7-.9 1.2-.1 2.6-.2 4.1-.2 1.5 0 3 .1 4.4.1h1.1c.4.1.8.3 1.1.5.5.4 1 .9 1.4 1.5.3.3.5.7.6 1 .1.3.2.7.4.9.2.3.6.6.9.9.4.3.8.7 1.1 1.2.4.5.5 1.3.4 2.1-.1.6-.4 1.2-.9 1.7l-.4.4c-.4.4-.8.7-1 1.2l-.3.6c-.1.2-.2.5-.3.7-.5.8-1.3 1.5-2.5 2.2-.9.5-1.8 1-2.8 1.4-.4.2-.9.4-1.3.6-.2.1-.5.2-.7.4l-1.2.6c-.5.2-1.1.3-1.6.4-.1 0-.3 0-.4.1-.4.1-.7.1-1.1.2-.2 0-.3.1-.5.1-.9.5-2 .7-3.2.7zm-3.1-1.9c.7.7 1.6.9 2.3 1h.8c1.1 0 2.2-.2 3.1-.4.2 0 .3-.1.5-.1.4-.1.8-.2 1.2-.2.1 0 .3 0 .4-.1.5-.1 1-.2 1.4-.4l1.2-.6c.2-.1.5-.3.7-.4.5-.2.9-.4 1.4-.6.9-.4 1.8-.8 2.7-1.3 1-.6 1.7-1.2 2.2-1.9l.3-.6c.1-.2.2-.5.3-.8.3-.5.7-.9 1.1-1.4l.4-.4c.3-.3.6-.7.6-1.3.1-.5 0-1.1-.3-1.6-.3-.4-.6-.7-1-1-.4-.3-.8-.7-1.1-1.1-.3-.4-.4-.8-.5-1.1-.1-.2-.2-.5-.4-.8-.4-.5-.8-1-1.2-1.3-.3-.2-.5-.3-.7-.3h-1c-1.4-.1-2.9-.1-4.4-.1-1.5 0-2.8.1-4 .2-1.5.2-2.6.5-3.6.8-.8.4-1.5.8-2 1.3 0 .5-.1.9-.3 1.3-.2.4-.5.8-.9 1.1-.2.2-.5.5-.6.8-.2.5-.2 1 0 1.6.1.4.3.7.5 1 .2.4.4.9.6 1.4.2 1.1.2 2.3 0 3.3v.1c-.1 1-.3 2.1-.2 3.1 0 .3.2.5.5.8z"/><g><path fill="#08446E" d="M11.3 4.8c1.3-.2 2.7-.1 4 .3.8.3 1.5.7 2.1 1.3l.6.6c-1-.9-2.3-1.7-3.7-2-.8-.2-1.7-.2-2.6-.2-.7.1-1.3.3-2 .4-1.2.1-2.4 0-3.7-.2h-.3c-.2.1-.4.3-.6.4.2-.3.4-.4.8-.5.5-.1 1.1.1 1.7.2 1.3.1 2.5-.1 3.7-.3z"/><path fill="#08446E" d="M12.2 5.5c1.2-.1 2.5 0 3.7.5.5.2 1.1.6 1.2 1.2-.4-.7-1.1-1.1-1.8-1.3-1.1-.3-2.3-.4-3.4-.3 0-.1.1-.1.3-.1zM5.8 5.9c.8-.3 1.7-.3 2.6-.1.2 0 .3 0 .5.1.1 0 0 .1 0 .2-.9-.2-1.7-.3-2.5-.2-.5.1-1 .3-1.3.7-.1.1-.2.4-.3.5 0-.3.1-.6.3-.8.2-.2.4-.3.7-.4zM12.1 5.8c.1-.1.2 0 .3 0-.3.2-.5.4-.6.7V7c-.1-.2-.1-.5-.1-.7.1-.2.2-.4.4-.5zM8.2 6.4c.1 0 .1 0 .2-.1.1.1.2.3.3.4v1c-.3-.3 0-.6-.1-1-.2 0-.3-.1-.4-.3zM13.4 7.1c.9-.2 1.8-.1 2.6.2.5.2 1 .7 1.1 1.2-.1.1-.3.2-.5.2-.4 0-.8-.2-1.2-.2-1.1-.1-2.3.3-3.3.8-.3-.3-.7-.3-.8-.7-.1-.2.1-.4.2-.6.5-.5 1.2-.8 1.9-.9zM5.8 7.6c.6-.2 1.3 0 2 .2.4.2.8.4 1.1.8.3-.1.6-.2.8 0 0 .1 0 .2-.1.3-.2.1-.5.1-.7.3v1.1c-.3.4-.9.4-1.1.9.3.4.6.9 1.1 1.1.2 0 .3-.2.5-.3.1 0 .1.1.2.1-.1.2-.2.5-.5.6-.2.1-.3 0-.5-.1-.5-.3-.8-.9-1.3-1.2-.1.1-.2.3-.4.2-.1-.1-.1-.2-.2-.4-.3.4-.7.9-1.2.8 1.1-.4 2-1.3 2.9-2v-.9c-.4-.2-1-.3-1.5-.3-.6-.1-1.3-.1-1.9-.4.1-.4.4-.7.8-.8zM17.3 8.1c.4 0 .7.2 1.1.1-.1.4-.6.5-.9.2.2 0 .4.1.5-.1-.2 0-.5 0-.7-.2zM3 8.3c.4.1.7 0 1.1-.1.2 0 .5 0 .6.2-.7-.1-1.4-.1-2 .2-.5.2-1 .6-1.2 1.1-.2.5-.1 1 0 1.5 0 .1.1.2.2.3.3.2.7.2 1.1.5.1.1.1.2.1.3-.2-.2-.3-.3-.5-.3-.3-.1-.7-.2-.9-.4-.2-.6-.3-1.2-.1-1.7.2-.7.7-1.3 1.4-1.6H3zM19.4 8.4c.3-.1.6-.1.9-.1.5 0 1.1.1 1.5.5.4.4.5.9.5 1.4v.8l-.1-.1V9.6c-.2-.4-.5-.8-1-1-.6-.2-1.2-.1-1.8-.2zM17.3 8.7c.2-.1.3 0 .4.2-.1 0-.3-.1-.4-.2z"/><path fill="#08446E" d="M18.8 8.8c.7-.1 1.4 0 2 .4.5.4.9 1 .9 1.6 0 .6-.3 1.1-.7 1.4-.2-.4.1-.7.2-1 .2-.4.1-.8-.1-1.2-.2-.4-.5-.6-.9-.7-.3-.1-.7-.1-1-.1-.4.3-.8.5-1.3.7-.6.2-1.3.2-1.9.1-.4-.1-.9-.2-1.1-.6-.1-.2-.2-.4-.2-.6.5.1.9.6 1.4.8.5.1 1 .1 1.4-.1.3-.2.7-.6 1.3-.7zM2.1 9.4c.3-.2.6-.4 1-.5-.2.4-.7.3-.9.7-.1.3 0 .7-.1 1.1l-.1-.1c0-.4.1-.8.1-1.2zM3.1 9.5c.4-.2.9-.1 1.4 0 .4.1.8.3 1.1.6.2-.1.3-.2.5-.3.1 0 .2 0 .3.1 0 .2-.1.5-.3.6-.4.2-.9.1-1.4.1 0-.3-.1-.6-.4-.6-.6-.1-1.1.1-1.7.2.1-.4.2-.6.5-.7z"/><path fill="#08446E" d="M19 9.7c.1-.1.2-.1.3-.1 0 .3 0 .5.2.7.3.4.9.5 1.3 1-.3.2-.6.1-.9 0-.2 0-.2.2-.3.3-.1.2-.1.4 0 .5.1.1-.1.2-.1.2-.6.6-.9 1.3-1.4 1.9-.4.5-.8 1-1.3 1.4-.9.7-1.8 1.2-2.8 1.6-1 .4-2 .5-3 .6-1.2.1-2.4.1-3.5 0-.8-.1-1.6-.2-2.4-.4-.3-.1-.7-.2-.9-.5-.3-.4-.5-.9-.7-1.4-.3-1-.3-2.1-.1-3.2.1-.5.3-1 .6-1.4.1-.2.1-.4.1-.6 0-.1.2 0 .3-.1.2.5.1 1 .2 1.4.8.8 2 1.2 3.1 1.4 1.6.2 3.3-.1 4.9-.4 2.3-.6 4.5-1.4 6.6-2.4-.2-.2-.3-.4-.2-.5z"/><path fill="#08446E" d="M11.5 10.9c0-.3.3-.4.6-.4s.7.1.9.4c.1.2 0 .4 0 .6 0 .3-.1.6-.4.8-.1.1-.3 0-.4 0V12c.1-.2.3-.2.4-.4v-.4c-.4-.2-.8-.1-1.1-.3zM13.2 10.9c0-.1-.1-.3.1-.3h.1l-.1.1c0 .1.1.2.2.3.5.1 1 0 1.5 0 .1 0 .1.1.1.2-.4-.2-1-.1-1.4-.1-.2 0-.4 0-.5-.2zM2 10.7s.1 0 .1.1c.1.3.4.4.7.6-.2 0-.4-.1-.5-.2-.2-.1-.2-.3-.3-.5zM22.2 11l.1.1c-.1.4-.1.8-.2 1.1-.3.2-.6.4-1 .5h-.3c.4-.1.7-.2 1-.5.2-.3.4-.8.4-1.2z"/><path fill="#08446E" d="M10.6 11.4c.4-.1.9-.1 1.4.1 0 .2 0 .4-.1.6-.5-.4-1.1 0-1.7-.2 0-.2.2-.4.4-.5z"/><g fill="#287EAB"><path d="M12.4 8c.4-.3.9-.4 1.4-.5-.1.3.1.5.1.7-.3 0-.7.1-.9.2-.3.2-.6.4-1 .3-.1-.3.1-.6.4-.7zM15.8 7.9c.2 0 .5 0 .6.1.1.1.1.1.1.2-.2-.1-.4-.1-.6-.2-.1.1-.1 0-.1-.1zM5.8 8.1h.8c.1 0 .2.1.3.1h-.7c-.1 0-.3 0-.4-.1zM17 11.8c.8-.3 1.4-.9 2.2-1 0 .5-.2.9-.5 1.2-.5.4-1.1.6-1.7.7.1-.3-.1-.6 0-.9zM3.8 12.4c0-.2.1-.3.2-.4 0 .2 0 .3-.2.4zM13.5 12.8c1-.3 2-.6 3-.8 0 .4-.2.9-.6 1.1-.7.4-1.5.5-2.1.8-.1-.4-.2-.7-.3-1.1zM4.1 13.6c0-.4.2-.8.4-1.1.1.5 0 1-.1 1.5-.2-.1-.3-.2-.3-.4zM17.4 13.2c.3-.2.6-.3.9-.3-.5.4-.7 1.3-1.4 1.5-.1-.2-.2-.4-.1-.6.1-.2.4-.4.6-.6zM5.1 14.2c-.1-.4-.3-1 .1-1.3.2.2.5.3.7.4 0 .3-.2.5-.2.7 0 .1 0 .3.1.4-.3-.1-.5-.2-.7-.2zM10.9 13.5c.7-.2 1.4-.3 2.1-.4.1.3.1.7.2 1.1-.6.1-1.1.3-1.6.3h-1v-.9c.1-.1.2-.1.3-.1zM6.2 14.3c.2-.2.1-.6.3-.8.5.3 1.1.1 1.6.3-.2.2 0 .5-.1.7-.6 0-1.2 0-1.8-.2zM8.7 13.7c.5.1 1-.1 1.5-.1v1H8.5c0-.4.2-.6.2-.9zM14 14.7c.8-.2 1.6-.6 2.4-.9-.1.4 0 .9.4 1.2-.8.4-1.4 1-2.2 1.4 0-.5-.4-.8-.5-1.3-.1-.1-.1-.2-.1-.4zM11.2 15.6c.8-.1 1.6-.4 2.4-.7 0 .3 0 .6.1.8.1.3.4.6.4.9-.7.2-1.4.5-2.1.5-.2 0-.5 0-.7-.1 0-.4-.2-.9-.1-1.4zM3.9 15.6v-.3c.1.3.3.5.4.8.1.1 0 .3 0 .4-.1-.3-.3-.6-.4-.9zM4.8 15.7c.4.3.6.8.8 1.3-.3-.1-.6-.1-.9-.2-.1 0-.1-.1-.1-.2l.1.1c.1 0 .2 0 .3-.1.1-.4-.4-.6-.2-.9zM8.8 15.9c.6.1 1.3-.1 1.9-.2 0 .5-.1 1.1.1 1.5-.6.2-1.2.1-1.8.1 0-.4-.2-.9-.2-1.4zM5.7 15.9c.3 0 .5.2.8.2 0 .4.3.7.4 1.1-.3 0-.6-.1-.8-.2 0-.1.1-.2 0-.3-.1-.3-.3-.5-.4-.8zM7 16c.4-.1.8-.1 1.1.1.4.3.4.8.5 1.2-.4 0-.7 0-1.1-.1-.1-.4-.4-.8-.5-1.2z"/></g><path fill="#08446E" d="M15.5 17.2c.6-.3 1.2-.5 1.8-.6-1 .4-2 .9-3 1.4-1.3.6-2.7 1.1-4.1 1-.5-.1-1.1 0-1.6 0-1 0-2 .1-3.1-.1-.4-.1-.9-.3-1.1-.6l-.3-.6c.4.6 1.1.9 1.7 1.1 1 .2 1.9.3 2.7.2 1.1 0 2.3 0 3.4-.3 1.3-.3 2.5-.9 3.6-1.5z"/><path fill="#08446E" d="M16.7 17.3c.6-.3 1.1-.7 1.8-.7-.7.5-1.5.9-2.3 1.2-3.1 1.4-6.5 2-9.9 2-.7 0-1.4 0-2-.2-.5-.2-1-.5-1.3-1 0-.2-.1-.4 0-.6 0 0 .1 0 .1-.1v.7c.3.3.7.5 1 .6.6.2 1.2.3 1.9.4 1 .1 2 0 3-.1 2.7-.1 5.3-1 7.7-2.2z"/><path fill="#08446E" d="M7 18.3h2.2c.5 0 1-.1 1.5.1H8.3c-.4 0-.9 0-1.3-.1z"/></g></svg>
