<svg xmlns="http://www.w3.org/2000/svg" viewBox="0 0 297.961 297.961" enable-background="new 0 0 297.961 297.961"><path d="M235.443 4.316C234.063 1.676 231.33 0 228.35 0H111.39c-3.536 0-6.653 2.34-7.665 5.73l-41.78 140.008c-.723 2.422-.26 5.03 1.25 7.055 1.51 2.027 3.89 3.207 6.416 3.207h65.58l-26.42 132.38c-.768 3.85 1.37 7.697 5.048 9.07.917.342 1.863.51 2.796.51 2.806 0 5.496-1.48 6.954-4.04l103.03-180.927c1.41-2.477 1.396-5.533-.036-7.997-1.432-2.464-4.066-3.996-6.916-3.996h-46.392l61.658-88.415c1.705-2.445 1.91-5.626.53-8.27z"/></svg>